static_grf.mot
version=1
nRows=25
nColumns 19
inDegrees=yes
endheader
time	1_ground_force_vx	1_ground_force_vy	1_ground_force_vz	1_ground_force_px	1_ground_force_py	1_ground_force_pz	1_ground_torque_x	1_ground_torque_y	1_ground_torque_z	2_ground_force_vx	2_ground_force_vy	2_ground_force_vz	2_ground_force_px	2_ground_force_py	2_ground_force_pz	2_ground_torque_x	2_ground_torque_y	2_ground_torque_z
            1.475000	           -3.847696	          316.238546	          -11.061846	           -0.267643	            0.006324	           -0.430268	           -0.028642	            2.354083	           -0.082345	            0.569123	          324.063291	           13.497778	           -0.286104	            0.005337	           -0.665821	           -0.003322	           -1.891343	           -0.078778
            1.475500	           -3.939040	          316.237938	          -10.924051	           -0.267364	            0.006323	           -0.430192	           -0.029024	            2.330172	           -0.080493	            0.478102	          323.326223	           13.542118	           -0.286232	            0.005336	           -0.665726	           -0.002724	           -1.842068	           -0.077153
            1.476000	           -3.940197	          316.960770	          -11.333662	           -0.267627	            0.006322	           -0.429791	           -0.029546	            2.376803	           -0.084988	            0.525637	          323.142023	           13.588369	           -0.286376	            0.005334	           -0.665225	           -0.003018	           -1.855115	           -0.078009
            1.476500	           -3.801724	          316.778989	          -10.967929	           -0.267582	            0.006321	           -0.429718	           -0.027994	            2.332564	           -0.080761	            0.573069	          322.958721	           13.399979	           -0.286354	            0.005335	           -0.665420	           -0.003270	           -1.842778	           -0.076459
            1.477000	           -4.122949	          316.058651	          -11.153648	           -0.267696	            0.006325	           -0.430566	           -0.030958	            2.373156	           -0.083748	            0.618028	          323.510536	           13.636571	           -0.286081	            0.005337	           -0.665883	           -0.003552	           -1.859122	           -0.078365
            1.477500	           -3.893782	          315.698360	          -11.201619	           -0.267827	            0.006326	           -0.430766	           -0.028771	            2.332663	           -0.082768	            0.570534	          323.694340	           13.684176	           -0.286107	            0.005337	           -0.665920	           -0.003285	           -1.863506	           -0.078780
            1.478000	           -3.802311	          317.500838	          -11.148261	           -0.267438	            0.006321	           -0.429701	           -0.028320	            2.364815	           -0.083035	            0.758640	          323.510542	           13.777296	           -0.286366	            0.005337	           -0.666176	           -0.004440	           -1.893307	           -0.080630
            1.478500	           -3.710428	          316.419262	          -11.153126	           -0.267837	            0.006323	           -0.430178	           -0.027957	            2.384086	           -0.084034	            0.476855	          323.693835	           13.731144	           -0.286225	            0.005337	           -0.665917	           -0.002714	           -1.842355	           -0.078153
            1.479000	           -3.939807	          317.320515	          -11.148693	           -0.267654	            0.006322	           -0.429803	           -0.029321	            2.361577	           -0.082971	            0.386437	          322.773067	           13.634043	           -0.286498	            0.005334	           -0.665263	           -0.002197	           -1.835440	           -0.077530
            1.479500	           -3.939481	          316.779355	          -11.059300	           -0.267891	            0.006323	           -0.430030	           -0.029585	            2.378984	           -0.083054	            0.381826	          324.061778	           13.732498	           -0.286451	            0.005335	           -0.665643	           -0.002212	           -1.877157	           -0.079547
            1.480000	           -3.848364	          316.780356	          -11.288807	           -0.267641	            0.006324	           -0.430296	           -0.028467	            2.343299	           -0.083506	            0.760510	          322.959063	           13.493756	           -0.286169	            0.005336	           -0.665483	           -0.004487	           -1.905342	           -0.079608
            1.480500	           -3.985617	          317.140271	          -11.149352	           -0.267806	            0.006322	           -0.429842	           -0.028903	            2.299838	           -0.080853	            0.524349	          323.510031	           13.683539	           -0.286137	            0.005337	           -0.665823	           -0.003024	           -1.865641	           -0.078911
            1.481000	           -4.122769	          315.697923	          -11.109338	           -0.267863	            0.006325	           -0.430579	           -0.030152	            2.308899	           -0.081250	            0.569787	          323.879151	           13.497121	           -0.286136	            0.005337	           -0.665899	           -0.003311	           -1.882145	           -0.078435
            1.481500	           -3.985842	          315.879167	          -11.338186	           -0.267580	            0.006326	           -0.430924	           -0.029360	            2.326756	           -0.083517	            0.522273	          324.063122	           13.497798	           -0.286166	            0.005336	           -0.665704	           -0.003007	           -1.865530	           -0.077703
            1.482000	           -3.710101	          315.878041	          -11.063734	           -0.267477	            0.006324	           -0.430349	           -0.028340	            2.412825	           -0.084510	            0.855663	          322.590115	           13.773971	           -0.286224	            0.005335	           -0.665351	           -0.005088	           -1.918327	           -0.081909
            1.482500	           -4.031296	          316.238903	          -11.153103	           -0.267550	            0.006325	           -0.430522	           -0.029729	            2.332143	           -0.082250	            0.851593	          323.695690	           13.590201	           -0.286042	            0.005338	           -0.665926	           -0.005086	           -1.933136	           -0.081162
            1.483000	           -3.847972	          315.878604	          -11.200960	           -0.267736	            0.006325	           -0.430607	           -0.028958	            2.377162	           -0.084293	            0.854251	          322.959066	           13.587572	           -0.286400	            0.005334	           -0.665368	           -0.005053	           -1.910359	           -0.080373
            1.483500	           -3.985243	          316.959385	          -11.012557	           -0.267412	            0.006323	           -0.430162	           -0.029129	            2.316716	           -0.080493	            0.570493	          323.694675	           13.590320	           -0.286163	            0.005337	           -0.665862	           -0.003343	           -1.897054	           -0.079648
            1.484000	           -3.939642	          316.419217	          -11.152557	           -0.267457	            0.006323	           -0.430183	           -0.029124	            2.339153	           -0.082446	            0.575125	          322.405797	           13.538793	           -0.286204	            0.005336	           -0.665483	           -0.003365	           -1.886243	           -0.079209
            1.484500	           -3.802212	          316.960010	          -11.150580	           -0.267732	            0.006322	           -0.429822	           -0.028518	            2.377281	           -0.083632	            0.713057	          323.142532	           13.635217	           -0.286725	            0.005335	           -0.665751	           -0.004114	           -1.864219	           -0.078662
            1.485000	           -3.894614	          317.141468	          -11.424715	           -0.267661	            0.006322	           -0.429939	           -0.028983	            2.360088	           -0.085020	            0.569829	          323.878816	           13.590977	           -0.286486	            0.005336	           -0.665899	           -0.003278	           -1.863196	           -0.078186
            1.485500	           -3.847615	          316.418645	          -11.015217	           -0.267685	            0.006324	           -0.430459	           -0.028604	            2.352311	           -0.081889	            0.666146	          323.142865	           13.494453	           -0.286201	            0.005335	           -0.665228	           -0.003858	           -1.871540	           -0.078156
            1.486000	           -3.755767	          316.778801	          -10.922187	           -0.267630	            0.006324	           -0.430246	           -0.028373	            2.393118	           -0.082512	            0.569849	          323.878648	           13.637905	           -0.286428	            0.005336	           -0.665841	           -0.003265	           -1.855664	           -0.078138
            1.486500	           -3.710607	          316.779990	          -11.197436	           -0.267555	            0.006323	           -0.430224	           -0.028334	            2.418940	           -0.085504	            0.708343	          324.432080	           13.499032	           -0.286280	            0.005338	           -0.666129	           -0.004061	           -1.859806	           -0.077383
            1.487000	           -3.801919	          316.599086	          -11.060414	           -0.267533	            0.006324	           -0.430247	           -0.028794	            2.397818	           -0.083768	            0.614685	          324.431407	           13.592928	           -0.286162	            0.005338	           -0.666127	           -0.003519	           -1.857173	           -0.077811
